<svg xmlns="http://www.w3.org/2000/svg" viewBox="0 0 2069 546" width="2069" height="546">
	<style>
		tspan { white-space:pre }
		.shp0 { fill: none;stroke: #7957d5;stroke-width: 21 } 
		.shp1 { fill: #7957d5 } 
	</style>
	<path id="Kaibu " fill="#000000" d="M696.62 271.8L852.23 109.92L815.75 76.29L645.89 259.83L645.89 78L591.74 78L591.74 477L645.89 477L645.89 293.46L839.69 483.84L877.31 445.08ZM908.66 330.51C908.66 423.99 967.94 483.84 1042.04 483.84C1088.21 483.84 1117.28 459.9 1134.95 435.39C1142.36 464.46 1164.02 479.85 1201.07 479.85L1211.9 439.95C1195.37 439.95 1178.27 434.25 1178.27 405.18L1178.27 180.6L1131.53 180.6L1131.53 204.54C1111.01 187.44 1083.08 173.76 1048.88 173.76C966.23 173.76 908.66 242.16 908.66 330.51ZM1053.44 438.24C1000.43 438.24 961.1 393.21 961.1 328.8C961.1 262.68 999.29 218.22 1054.01 218.22C1081.37 218.22 1106.45 227.91 1126.97 242.16L1126.97 401.19C1109.3 422.85 1081.94 438.24 1053.44 438.24ZM1331.6 180.6L1280.3 180.6L1280.3 477L1331.6 477ZM1305.95 129.87C1328.18 129.87 1341.86 115.62 1341.86 93.96C1341.86 74.58 1325.9 58.05 1305.95 58.05C1283.72 58.05 1270.04 72.3 1270.04 93.96C1270.04 113.34 1286 129.87 1305.95 129.87ZM1422.8 477L1470.68 477L1470.68 452.49C1490.06 469.59 1521.98 483.84 1556.18 483.84C1623.44 483.84 1690.13 420.57 1690.13 325.95C1690.13 229.62 1628 173.76 1559.6 173.76C1519.13 173.76 1489.49 194.28 1474.1 211.38L1474.1 55.2L1422.8 55.2ZM1637.69 327.66C1637.69 394.35 1597.79 438.24 1542.5 438.24C1515.71 438.24 1491.77 429.12 1474.1 415.44L1474.1 256.98C1487.78 238.17 1515.71 218.22 1548.2 218.22C1597.22 218.22 1637.69 259.26 1637.69 327.66ZM2037.26 439.95C2020.16 439.95 2003.63 433.11 2003.63 400.05L2003.63 180.6L1952.33 180.6L1952.33 403.47C1929.53 424.56 1899.32 438.24 1867.97 438.24C1829.78 438.24 1809.83 412.59 1809.83 366.42L1809.83 180.6L1758.53 180.6L1758.53 373.26C1758.53 454.2 1806.98 483.84 1858.28 483.84C1898.75 483.84 1934.09 465.03 1960.88 437.67C1968.86 465.03 1989.95 479.85 2026.43 479.85Z" />
	<path id="Shape 5" class="shp0" d="M486.17 63.62C468.98 46.5 448.33 37.98 424.21 38.05L132.29 38.93C108.17 39 87.57 47.65 70.5 64.86C53.42 82.08 44.92 102.78 45 126.95L45.94 419.5C46.01 443.68 54.64 464.32 71.83 481.44C89.01 498.55 109.66 507.07 133.79 507L425.71 506.13C449.83 506.05 470.43 497.41 487.5 480.19C504.58 462.97 513.08 442.28 513 418.1L512.06 125.55C511.99 101.38 503.35 80.74 486.17 63.62Z" />
	<path id="Shape 4" class="shp1" d="M114.8 215.51C114.8 215.51 214.75 297.49 222.55 304.59C238.55 319.15 262.06 339.84 265.21 349.04C270.77 365.26 265.81 374.57 266.3 377.04C266.78 379.51 262.2 392.45 265.37 401.04C268.54 409.63 269.94 414.05 275.42 417.01C280.91 419.98 305.73 417.22 310.23 417.55C314.8 417.89 338.66 422.02 338.66 422.02L361.28 426.77C361.28 426.77 389 433.64 403.39 437.71C425.54 443.99 433.39 448.05 434.59 448.53C445.02 452.7 452.33 457.51 458.18 458.45C483.83 462.53 477.33 419.52 465.24 402.35C465.24 402.35 428.33 361.68 389.45 342.22C366.88 330.93 334.37 298.64 323.02 285.86C311.67 273.09 273.4 208.71 263.38 191.16C253.35 173.61 227.86 141.56 212.88 129.83C199.61 119.43 168.77 100.08 154.42 93.38C140.07 86.69 142.5 81.47 131.4 86.45C120.29 91.44 128.98 105.74 109.47 109.52C89.96 113.31 90.75 116.41 88.51 121.59C86.27 126.77 75.29 152.14 73.52 155.95C70.12 163.25 69.3 160.17 86.62 184.59C94.7 195.98 96.7 197.64 100.76 202.55" />
</svg>