<svg xmlns="http://www.w3.org/2000/svg" viewBox="0 0 488 488" width="480" height="480">
	<style>
		tspan { white-space:pre }
		.shp0 { fill: none;stroke: #7957d5;stroke-width: 21 } 
		.shp1 { fill: #7957d5 } 
	</style>
	<path id="Shape 5" class="shp0" d="M451.17 34.62C433.98 17.5 413.33 8.98 389.21 9.05L97.29 9.93C73.17 10 52.57 18.65 35.5 35.86C18.42 53.08 9.92 73.78 10 97.95L10.94 390.5C11.01 414.68 19.64 435.32 36.83 452.44C54.01 469.55 74.66 478.07 98.79 478L390.71 477.13C414.83 477.05 435.43 468.41 452.5 451.19C469.58 433.97 478.08 413.28 478 389.1L477.06 96.55C476.99 72.38 468.35 51.74 451.17 34.62Z" />
	<path id="Shape 4" class="shp1" d="M79.8 186.51C79.8 186.51 179.75 268.49 187.55 275.59C203.55 290.15 227.06 310.84 230.21 320.04C235.77 336.26 230.81 345.57 231.3 348.04C231.78 350.51 227.2 363.45 230.37 372.04C233.54 380.63 234.94 385.05 240.42 388.01C245.91 390.98 270.73 388.22 275.23 388.55C279.8 388.89 303.66 393.02 303.66 393.02L326.28 397.77C326.28 397.77 354 404.64 368.39 408.71C390.54 414.99 398.39 419.05 399.59 419.53C410.02 423.7 417.33 428.51 423.18 429.45C448.83 433.53 442.33 390.52 430.24 373.35C430.24 373.35 393.33 332.68 354.45 313.22C331.88 301.93 299.37 269.64 288.02 256.86C276.67 244.09 238.4 179.71 228.38 162.16C218.35 144.61 192.86 112.56 177.88 100.83C164.61 90.43 133.77 71.08 119.42 64.38C105.07 57.69 107.5 52.47 96.4 57.45C85.29 62.44 93.98 76.74 74.47 80.52C54.96 84.31 55.75 87.41 53.51 92.59C51.27 97.77 40.29 123.14 38.52 126.95C35.12 134.25 34.3 131.17 51.62 155.59C59.7 166.98 61.7 168.64 65.76 173.55" />
</svg>